<svg xmlns="http://www.w3.org/2000/svg" width="1040" height="88" viewBox="0 0 1040 88" role="img" aria-label="Core technology stack">
  <defs><linearGradient id="accent" x1="0" y1="0" x2="1" y2="1"><stop stop-color="#0891b2"/><stop offset="1" stop-color="#16a34a"/></linearGradient></defs>
  <g font-family="-apple-system,BlinkMacSystemFont,Segoe UI,sans-serif">
    <g transform="translate(0)"><rect x="1" y="1" width="176" height="86" rx="16" fill="#f8fbff" stroke="#bad5df"/><circle cx="35" cy="44" r="20" fill="#e1f3f7"/><text x="35" y="51" text-anchor="middle" fill="#0e7490" font-family="ui-monospace,SFMono-Regular,Menlo,monospace" font-size="18" font-weight="700">C++</text><text x="66" y="39" fill="#243b53" font-size="15" font-weight="700">C++</text><text x="66" y="58" fill="#64748b" font-size="11">algorithms &amp; systems</text></g>
    <g transform="translate(188)"><rect x="1" y="1" width="176" height="86" rx="16" fill="#f8fbff" stroke="#bad5df"/><circle cx="35" cy="44" r="20" fill="#e1f3f7"/><text x="35" y="51" text-anchor="middle" fill="#0e7490" font-family="ui-monospace,SFMono-Regular,Menlo,monospace" font-size="20" font-weight="700">Py</text><text x="66" y="39" fill="#243b53" font-size="15" font-weight="700">Python</text><text x="66" y="58" fill="#64748b" font-size="11">automation &amp; tooling</text></g>
    <g transform="translate(376)"><rect x="1" y="1" width="176" height="86" rx="16" fill="#f8fbff" stroke="#bad5df"/><circle cx="35" cy="44" r="20" fill="#e1f3f7"/><text x="35" y="51" text-anchor="middle" fill="#0e7490" font-family="ui-monospace,SFMono-Regular,Menlo,monospace" font-size="18" font-weight="700">JS</text><text x="66" y="39" fill="#243b53" font-size="15" font-weight="700">JavaScript</text><text x="66" y="58" fill="#64748b" font-size="11">web &amp; dashboards</text></g>
    <g transform="translate(564)"><rect x="1" y="1" width="176" height="86" rx="16" fill="#f8fbff" stroke="#bad5df"/><circle cx="35" cy="44" r="20" fill="#e1f3f7"/><text x="35" y="51" text-anchor="middle" fill="#0e7490" font-family="ui-monospace,SFMono-Regular,Menlo,monospace" font-size="17" font-weight="700">$</text><text x="66" y="39" fill="#243b53" font-size="15" font-weight="700">Linux</text><text x="66" y="58" fill="#64748b" font-size="11">daily environment</text></g>
    <g transform="translate(752)"><rect x="1" y="1" width="287" height="86" rx="16" fill="#f8fbff" stroke="#bad5df"/><circle cx="35" cy="44" r="20" fill="url(#accent)"/><text x="35" y="51" text-anchor="middle" fill="#fff" font-family="ui-monospace,SFMono-Regular,Menlo,monospace" font-size="18" font-weight="700">AC</text><text x="66" y="39" fill="#243b53" font-size="15" font-weight="700">Competitive Programming</text><text x="66" y="58" fill="#64748b" font-size="11">problem solving · reusable templates</text></g>
  </g>
</svg>
